<svg width="527" height="179" viewBox="0 0 527 179" fill="none" xmlns="http://www.w3.org/2000/svg">
<g filter="url(#filter0_d_102_99)">
<path fill-rule="evenodd" clip-rule="evenodd" d="M80.2947 36.0574C76.4564 36.4278 72.948 37.4361 69.5421 39.1476C55.9892 45.9583 45.1386 63.4823 41.379 84.6321C40.697 88.4687 40.3179 91.7546 40.0835 95.8598C39.92 98.7259 40.008 104.476 40.2486 106.629C41.2479 115.571 44.0468 122.372 48.7222 127.217C51.447 130.041 54.483 131.962 58.132 133.171C60.9741 134.112 63.5383 134.502 66.8938 134.502C73.3294 134.501 78.0396 132.864 83.0213 128.899C85.3477 127.047 88.9016 123.248 91.5185 119.816C96.1586 113.73 99.1655 108.861 108.807 91.8181L114.114 82.4375L115.267 84.3382C116.763 86.8044 122.098 95.7114 125.334 101.144C133.42 114.721 138.113 121.345 143.163 126.307C148.188 131.245 152.861 133.61 159.022 134.336C160.671 134.53 164.065 134.555 165.631 134.385C169.893 133.922 173.71 132.465 176.86 130.099C177.922 129.302 179.901 127.381 180.777 126.298C184.373 121.853 186.791 115.479 187.713 108.014C188.413 102.355 188.331 95.2274 187.488 88.3998C185.05 68.6532 176.433 51.4264 164.506 42.4544C157.35 37.0719 149.186 34.9499 141.557 36.4898C133.546 38.1067 125.759 44.0851 117.46 54.9892C116.857 55.7815 116.303 56.4967 116.229 56.5784C116.12 56.6991 115.863 56.441 114.865 55.2058C103.998 41.7608 94.1962 35.9031 82.7319 36.0022C81.6046 36.012 80.5079 36.0368 80.2947 36.0574ZM148.739 49.0022C152.612 49.8658 156.131 51.9871 159.547 55.5183C161.858 57.9064 163.692 60.4196 165.47 63.6328C170.185 72.1552 172.925 82.2238 173.898 94.6055C174.114 97.3499 174.081 104.207 173.844 105.964C172.878 113.126 170.216 117.086 165.596 118.233C164.288 118.558 161.829 118.58 160.534 118.279C157.102 117.481 154.686 115.459 150.588 109.953C147.612 105.956 141.261 95.9561 134.119 84.0227C128.69 74.9517 126.862 72.0063 124.126 67.9179L123.36 66.7731L124.628 64.8705C131.091 55.1767 136.654 50.2051 142.434 48.9569C143.338 48.7617 143.775 48.7372 145.693 48.7743C147.216 48.8037 148.167 48.8749 148.739 49.0022ZM84.8355 52.2867C89.1762 52.8896 92.8746 54.9988 97.2452 59.3639C99.8337 61.949 102.318 64.9508 105.281 69.0729L106.53 70.8101L106.166 71.3769C105.965 71.6888 104.539 73.8887 102.998 76.2656C99.2353 82.0665 95.9017 87.2586 92.2541 92.9987C88.3241 99.1832 87.2951 100.756 85.0777 103.969C78.7492 113.139 74.9996 116.874 70.9561 118.036C67.8775 118.921 64.7108 118.595 62.2247 117.137C61.3016 116.596 59.7842 115.108 59.0897 114.064C57.5618 111.766 56.5689 108.652 56.1362 104.8C55.9569 103.204 55.9577 97.9183 56.1376 95.6582C57.3779 80.0761 62.7499 65.8877 70.3757 58.0524C73.9157 54.4153 77.1987 52.6138 81.1807 52.1234C81.7316 52.0556 83.8543 52.1505 84.8355 52.2867Z" fill="url(#paint0_linear_102_99)"/>
<path fill-rule="evenodd" clip-rule="evenodd" d="M80.2947 36.0574C76.4564 36.4278 72.948 37.4361 69.5421 39.1476C55.9892 45.9583 45.1386 63.4823 41.379 84.6321C40.697 88.4687 40.3179 91.7546 40.0835 95.8598C39.92 98.7259 40.008 104.476 40.2486 106.629C41.2479 115.571 44.0468 122.372 48.7222 127.217C51.447 130.041 54.483 131.962 58.132 133.171C60.9741 134.112 63.5383 134.502 66.8938 134.502C73.3294 134.501 78.0396 132.864 83.0213 128.899C85.3477 127.047 88.9016 123.248 91.5185 119.816C96.1586 113.73 99.1655 108.861 108.807 91.8181L114.114 82.4375L115.267 84.3382C116.763 86.8044 122.098 95.7114 125.334 101.144C133.42 114.721 138.113 121.345 143.163 126.307C148.188 131.245 152.861 133.61 159.022 134.336C160.671 134.53 164.065 134.555 165.631 134.385C169.893 133.922 173.71 132.465 176.86 130.099C177.922 129.302 179.901 127.381 180.777 126.298C184.373 121.853 186.791 115.479 187.713 108.014C188.413 102.355 188.331 95.2274 187.488 88.3998C185.05 68.6532 176.433 51.4264 164.506 42.4544C157.35 37.0719 149.186 34.9499 141.557 36.4898C133.546 38.1067 125.759 44.0851 117.46 54.9892C116.857 55.7815 116.303 56.4967 116.229 56.5784C116.12 56.6991 115.863 56.441 114.865 55.2058C103.998 41.7608 94.1962 35.9031 82.7319 36.0022C81.6046 36.012 80.5079 36.0368 80.2947 36.0574ZM148.739 49.0022C152.612 49.8658 156.131 51.9871 159.547 55.5183C161.858 57.9064 163.692 60.4196 165.47 63.6328C170.185 72.1552 172.925 82.2238 173.898 94.6055C174.114 97.3499 174.081 104.207 173.844 105.964C172.878 113.126 170.216 117.086 165.596 118.233C164.288 118.558 161.829 118.58 160.534 118.279C157.102 117.481 154.686 115.459 150.588 109.953C147.612 105.956 141.261 95.9561 134.119 84.0227C128.69 74.9517 126.862 72.0063 124.126 67.9179L123.36 66.7731L124.628 64.8705C131.091 55.1767 136.654 50.2051 142.434 48.9569C143.338 48.7617 143.775 48.7372 145.693 48.7743C147.216 48.8037 148.167 48.8749 148.739 49.0022ZM84.8355 52.2867C89.1762 52.8896 92.8746 54.9988 97.2452 59.3639C99.8337 61.949 102.318 64.9508 105.281 69.0729L106.53 70.8101L106.166 71.3769C105.965 71.6888 104.539 73.8887 102.998 76.2656C99.2353 82.0665 95.9017 87.2586 92.2541 92.9987C88.3241 99.1832 87.2951 100.756 85.0777 103.969C78.7492 113.139 74.9996 116.874 70.9561 118.036C67.8775 118.921 64.7108 118.595 62.2247 117.137C61.3016 116.596 59.7842 115.108 59.0897 114.064C57.5618 111.766 56.5689 108.652 56.1362 104.8C55.9569 103.204 55.9577 97.9183 56.1376 95.6582C57.3779 80.0761 62.7499 65.8877 70.3757 58.0524C73.9157 54.4153 77.1987 52.6138 81.1807 52.1234C81.7316 52.0556 83.8543 52.1505 84.8355 52.2867Z" fill="url(#paint1_radial_102_99)"/>
<path d="M129.981 77.2205C111.212 46.6954 98.7149 36 82.5923 36L82.3892 52.0382C92.9452 52.0382 101.131 60.362 118.931 90.3396L120.016 92.1647L129.981 77.2205Z" fill="url(#paint2_linear_102_99)"/>
</g>
<path d="M268.633 95.8202L237.253 39.057H218.799V132.33H233.855V60.8433L261.371 110.344H275.492L303.008 60.8433V132.33H318.067V39.057H300.013L268.633 95.8202ZM382.59 65.8731C377.815 62.7416 372.119 61.1759 365.501 61.1759C358.84 61.1759 352.944 62.7305 347.813 65.8397C342.683 68.9489 338.674 73.2571 335.788 78.7645C332.9 84.2718 331.457 90.6011 331.457 97.7523C331.457 104.817 332.934 111.08 335.888 116.54C338.841 122 342.961 126.275 348.246 129.366C353.531 132.451 359.661 133.994 366.634 133.995C378.182 133.995 387.931 130.353 395.882 123.069L387.887 113.275C385.045 115.984 382.003 118.005 378.762 119.337C375.52 120.67 371.656 121.336 367.169 121.336C361.574 121.336 356.943 119.704 353.278 116.44C349.613 113.176 347.314 108.701 346.383 103.015H397.482V98.8846C397.482 91.2892 396.194 84.6715 393.618 79.0314C391.042 73.3912 387.366 69.0051 382.59 65.8731ZM346.383 92.0229C347.271 86.4711 349.392 82.0516 352.745 78.7645C356.098 75.4773 360.262 73.8338 365.237 73.8338C370.345 73.8338 374.475 75.444 377.629 78.6644C380.783 81.8848 382.582 86.3376 383.026 92.0229H346.383ZM430.262 42.455H415.74V62.842H401.879V75.1673H415.737V108.145C415.737 125.291 423.576 133.863 439.254 133.862C441.428 133.868 443.599 133.712 445.75 133.395C447.63 133.125 449.489 132.724 451.313 132.195V120.004C449.715 120.271 448.249 120.482 446.917 120.638C445.584 120.793 443.963 120.871 442.053 120.87C437.745 120.87 434.703 119.76 432.927 117.539C431.152 115.318 430.264 111.61 430.262 106.414V75.1673H451.315V62.842H430.26L430.262 42.455ZM512.744 62.842V71.7712C510.3 68.4328 507.074 65.7448 503.349 63.943C499.574 62.1002 495.31 61.1785 490.558 61.1779C484.251 61.1779 478.665 62.7325 473.803 65.8417C468.94 68.9509 465.131 73.2356 462.377 78.6958C459.622 84.1593 458.245 90.4441 458.246 97.5501C458.246 104.615 459.601 110.889 462.309 116.371C465.018 121.854 468.738 126.162 473.469 129.296C478.199 132.427 483.629 133.993 489.757 133.993C494.729 133.993 499.171 133.005 503.082 131.028C506.994 129.051 510.214 126.242 512.743 122.601V132.328H527V62.842H512.744ZM512.477 108.012C510.922 111.921 508.39 115.03 504.882 117.34C501.374 119.649 497.377 120.803 492.89 120.803C486.807 120.803 481.988 118.716 478.433 114.541C474.878 110.366 473.102 104.703 473.103 97.5521C473.103 90.446 474.946 84.8053 478.632 80.6298C482.318 76.4543 487.27 74.3672 493.487 74.3686C497.885 74.3686 501.76 75.5133 505.113 77.8029C508.465 80.0924 510.918 83.2127 512.472 87.1638L512.477 108.012Z" fill="white"/>
<defs>
<filter id="filter0_d_102_99" x="0" y="0" width="228.185" height="178.502" filterUnits="userSpaceOnUse" color-interpolation-filters="sRGB">
<feFlood flood-opacity="0" result="BackgroundImageFix"/>
<feColorMatrix in="SourceAlpha" type="matrix" values="0 0 0 0 0 0 0 0 0 0 0 0 0 0 0 0 0 0 127 0" result="hardAlpha"/>
<feOffset dy="4"/>
<feGaussianBlur stdDeviation="20"/>
<feComposite in2="hardAlpha" operator="out"/>
<feColorMatrix type="matrix" values="0 0 0 0 0.5 0 0 0 0 0.76 0 0 0 0 1 0 0 0 0.2 0"/>
<feBlend mode="normal" in2="BackgroundImageFix" result="effect1_dropShadow_102_99"/>
<feBlend mode="normal" in="SourceGraphic" in2="effect1_dropShadow_102_99" result="shape"/>
</filter>
<linearGradient id="paint0_linear_102_99" x1="56.9753" y1="46.1561" x2="188.166" y2="129.07" gradientUnits="userSpaceOnUse">
<stop stop-color="#3182F3"/>
<stop offset="0.13599" stop-color="#0164E0"/>
<stop offset="0.559391" stop-color="#0869E1"/>
<stop offset="0.96875" stop-color="#307FEF"/>
</linearGradient>
<radialGradient id="paint1_radial_102_99" cx="0" cy="0" r="1" gradientUnits="userSpaceOnUse" gradientTransform="translate(114.083 72.3059) rotate(90) scale(52.9865 79.7127)">
<stop stop-color="#3183F3"/>
<stop offset="1" stop-color="#3183F3"/>
</radialGradient>
<linearGradient id="paint2_linear_102_99" x1="85.5782" y1="42.8686" x2="125.416" y2="84.0312" gradientUnits="userSpaceOnUse">
<stop stop-color="#3183F3"/>
<stop offset="0.660785" stop-color="#2669D9"/>
<stop offset="1" stop-color="#3183F3"/>
</linearGradient>
</defs>
</svg>
